# AST/ASF file generated using VICON BodyLanguage
# -----------------------------------------------
:version 1.10
:name VICON
:units
  mass 1.0
  length 0.45
  angle deg
:documentation
   .ast/.asf automatically generated from VICON data using
   VICON BodyBuilder and BodyLanguage model FoxedUp or BRILLIANT.MOD
:root
   order TX TY TZ RX RY RZ
   axis XYZ
   position 0 0 0  
   orientation 0 0 0 
:bonedata
  begin
     id 1 
     name lhipjoint
     direction 0.61886 -0.69539 0.365302 
     length 2.20474 
     axis 0 0 0  XYZ
  end
  begin
     id 2 
     name lfemur
     direction 0.34202 -0.939693 0  
     length 6.65149  
     axis 0 0 20  XYZ
    dof rx ry rz
    limits (-160.0 20.0)
           (-70.0 70.0)
           (-60.0 70.0)
  end
  begin
     id 3 
     name ltibia
     direction 0.34202 -0.939693 0   
     length 6.35814   
     axis 0 0 20   XYZ
    dof rx
    limits (-10.0 170.0)
  end
  begin
     id 4 
     name lfoot
     direction 0.101224 -0.278109 0.955201   
     length 2.18766   
     axis -90 7.62852e-016 20   XYZ
    dof rx rz
    limits (-45.0 90.0)
           (-70.0 20.0)
  end
  begin
     id 5 
     name ltoes
     direction 1.53524e-011 -4.21877e-011 1   
     length 1.09206   
     axis -90 7.62852e-016 20   XYZ
    dof rx
    limits (-90.0 20.0)
  end
  begin
     id 6 
     name rhipjoint
     direction -0.600207 -0.708087 0.371972   
     length 2.1652  
     axis 0 0 0  XYZ 
  end
  begin
     id 7 
     name rfemur
     direction -0.34202 -0.939693 0   
     length 6.54691   
     axis 0 0 -20   XYZ
    dof rx ry rz
    limits (-160.0 20.0)
           (-70.0 70.0)
           (-70.0 60.0)
  end
  begin
     id 8 
     name rtibia
     direction -0.34202 -0.939693 0   
     length 6.37474   
     axis 0 0 -20   XYZ
    dof rx
    limits (-10.0 170.0)
 end
 begin
     id 9 
     name rfoot
     direction -0.111266 -0.3057 0.945604   
     length 2.00903  
     axis -90 -7.62852e-016 -20   XYZ
    dof rx rz
    limits (-45.0 90.0)
           (-20.0 70.0)
  end
  begin
     id 10 
     name rtoes
     direction -1.5362e-011 -4.21913e-011 1   
     length 1.00221   
     axis -90 -7.62852e-016 -20   XYZ
    dof rx
    limits (-90.0 20.0)
  end
  begin
     id 11 
     name lowerback
     direction -0.0224561 0.999731 -0.00577314   
     length 2.10409   
     axis 0 0 0   XYZ
    dof rx ry rz
    limits (-20.0 45.0)
           (-30.0 30.0)
           (-30.0 30.0)
  end
  begin
     id 12 
     name upperback
     direction 0.0213126 0.999185 -0.0342817   
     length 2.09783   
     axis 0 0 0   XYZ
    dof rx ry rz
    limits (-20.0 45.0)
           (-30.0 30.0)
           (-30.0 30.0)
  end
  begin
     id 13 
     name thorax
     direction 0.0312356 0.999036 -0.0308451   
     length 2.09788   
     axis 0 0 0   XYZ
    dof rx ry rz
    limits (-20.0 45.0)
           (-30.0 30.0)
           (-30.0 30.0)
  end
  begin
     id 14 
     name lowerneck
     direction -0.0114419 0.996481 0.0830329   
     length 1.38575   
     axis 0 0 0   XYZ
    dof rx ry rz
    limits (-20.0 45.0)
           (-30.0 30.0)
           (-30.0 30.0)
  end
  begin
     id 15 
     name upperneck
     direction -0.0075675 0.996187 -0.0869092   
     length 1.39401   
     axis 0 0 0   XYZ
    dof rx ry rz
    limits (-20.0 45.0)
           (-30.0 30.0)
           (-30.0 30.0)
  end
  begin
     id 16
     name head
     direction -0.00222073 0.999264 -0.0382974  
     length 1.3964  
     axis 0 0 0   XYZ
    dof rx ry rz
    limits (-20.0 45.0)
           (-30.0 30.0)
           (-30.0 30.0)
  end
  begin
     id 17 
     name lclavicle
     direction 0.965962 0.222138 0.132556  
     length 2.81514  
     axis 0 0 0   XYZ
    dof ry rz
    limits (-20.0 10.0)
           (0.0 20.0)
  end
  begin
     id 18 
     name lhumerus
     direction 1 -4.48972e-011 7.03471e-018   
     length 4.47366   
     axis 180 -30 -90   XYZ
    dof rx ry rz
    limits (-60.0 90.0)
           (-90.0 90.0)
           (-90.0 90.0)
  end
  begin
     id 19
     name lradius
     direction 1 -4.48951e-011 -6.22192e-028   
     length 3.19948   
     axis 180 -30 -90   XYZ
    dof rx
    limits (-10.0 170.0)
  end
  begin
     id 20
     name lwrist
     direction 1 -4.48967e-011 -1.24264e-027   
     length 1.59974   
     axis 1.40095e-015 90 90   XYZ
    dof ry
    limits (-180.0 0.0)
 end
  begin
     id 21 
     name lhand
     direction 1 -4.4897e-011 -2.48528e-027   
     length 0.492667   
     axis 1.58582e-015 90 90   XYZ
    dof rx rz
    limits (-90.0 90.0)
           (-45.0 45.0)
  end
  begin
     id 22 
     name lfingers
     direction 1 -4.48996e-011 -4.97056e-027   
     length 0.397201   
     axis 3.17164e-015 90 90   XYZ
    dof rx
    limits (0.0 90.0)
  end
  begin
     id 23
     name lthumb
     direction 0.707107 -6.34981e-011 0.707107   
     length 0.570303   
     axis -90 45 2.85299e-015   XYZ
    dof rx rz
    limits (-45.0 45.0)
           (-45.0 45.0)
  end
  begin
     id 24 
     name rclavicle
     direction -0.961164 0.229034 0.153972   
     length 3.09348  
     axis 0 0 0   XYZ 
    dof ry rz
    limits (-10.0 20.0)
           (-20.0 0.0)
  end
  begin
     id 25 
     name rhumerus
     direction -1 -4.48971e-011 -9.06263e-028  
     length 4.3269   
     axis 180 30 90   XYZ
    dof rx ry rz
    limits (-90.0 60.0)
           (-90.0 90.0)
           (-90.0 90.0)
  end
  begin
     id 26 
     name rradius
     direction -1 -4.48953e-011 1.44659e-027   
     length 3.1896   
     axis 180 30 90   XYZ
    dof rx
    limits (-10.0 170.0)
  end
  begin
     id 27 
     name rwrist
     direction -1 -4.48988e-011 -1.24264e-027   
     length 1.5948   
     axis 1.40095e-015 -90 -90   XYZ
    dof ry
    limits (-180.0 0.0)
  end
  begin
     id 28
     name rhand
     direction -1 -4.49033e-011 -2.48528e-027   
     length 0.464496   
     axis 1.58582e-015 -90 -90   XYZ
    dof rx rz
    limits (-90.0 90.0)
           (-45.0 45.0)
  end
  begin
     id 29
     name rfingers
     direction -1 -4.48905e-011 -4.97056e-027   
     length 0.374489   
     axis 3.17164e-015 -90 -90   XYZ
    dof rx
    limits (0.0 90.0)
  end
  begin
     id 30
     name rthumb
     direction -0.707107 -6.34909e-011 0.707107   
     length 0.537693   
     axis -90 -45 -2.85299e-015   XYZ
    dof rx rz
    limits (-45.0 45.0)
           (-45.0 45.0)
  end
:hierarchy
  begin
    root lhipjoint rhipjoint lowerback
    lhipjoint lfemur
    lfemur ltibia
    ltibia lfoot
    lfoot ltoes
    rhipjoint rfemur
    rfemur rtibia
    rtibia rfoot
    rfoot rtoes
    lowerback upperback
    upperback thorax
    thorax lowerneck lclavicle rclavicle
    lowerneck upperneck
    upperneck head
    lclavicle lhumerus
    lhumerus lradius
    lradius lwrist
    lwrist lhand lthumb
    lhand lfingers
    rclavicle rhumerus
    rhumerus rradius
    rradius rwrist
    rwrist rhand rthumb
    rhand rfingers
  end

#!OML:ASF G:\acrobat\cartwheel_test 2\Patient 1\Session 2\acrobat4.ASF
:FULLY-SPECIFIED
:DEGREES
1794
root 9.22174 20.5452 -10.8177 369.697 -6.47307 359.608
lowerback 1.61576 0.97321 0.777825
upperback 1.97503 1.27708 2.88753
thorax 1.07003 0.626016 2.51753
lowerneck -13.3305 -3.19859 -3.22839
upperneck 28.2185 -3.28335 -1.66274
head 11.4067 -2.03291 -0.504087
rclavicle 3.39922e-014 2.78299e-014
rhumerus -27.9049 8.15692 -45.8984
rradius 49.6118
rwrist 24.547
rhand -20.2728 -23.5351
rfingers 7.12502
rthumb 6.07645 306.572
lclavicle 3.39922e-014 2.78299e-014
lhumerus -32.9706 1.06987 57.0933
lradius 75.079
lwrist 11.8649
lhand -27.6749 718.196
lfingers 7.12502
lthumb -1.07196 -691.827
rfemur -18.725 3.93258 29.2392
rtibia 40.8927
rfoot -29.8341 -15.5118
rtoes -7.29583
lfemur -42.5023 6.97842 -29.4289
ltibia 48.8753
lfoot -20.2567 12.4133
ltoes -41.921
1795
root 9.22273 20.5402 -10.8298 369.775 -6.37133 359.679
lowerback 1.51976 0.991931 0.72216
upperback 1.95823 1.29953 2.93105
thorax 1.10356 0.636248 2.59516
lowerneck -13.737 -3.16822 -3.07554
upperneck 28.5204 -3.21194 -1.82618
head 11.5986 -2.00644 -0.593206
rclavicle 1.47101e-014 5.56597e-015
rhumerus -28.3329 7.35217 -46.0609
rradius 49.1254
rwrist 24.3737
rhand -20.267 -23.3081
rfingers 7.12502
rthumb 6.08202 306.799
lclavicle 1.47101e-014 5.56597e-015
lhumerus -33.4114 1.49259 57.394
lradius 74.4708
lwrist 11.6037
lhand -27.1769 718.133
lfingers 7.12502
lthumb -0.590928 -691.888
rfemur -18.9598 3.65152 29.1415
rtibia 41.0502
rfoot -29.9726 -15.1639
rtoes -7.0496
lfemur -42.9965 7.11293 -29.6053
ltibia 49.4579
lfoot -20.3706 11.8034
ltoes -41.3074
1796
root 9.22342 20.5346 -10.8375 369.795 -6.22734 359.569
lowerback 1.47235 0.991728 0.836845
upperback 1.97108 1.29744 3.03109
thorax 1.14381 0.6357 2.635
lowerneck -14.1254 -3.16961 -2.88938
upperneck 28.7741 -3.1817 -2.04085
head 11.7681 -2.00126 -0.712192
rclavicle -1.94809e-014 -2.62396e-014
rhumerus -28.6018 6.57293 -46.2245
rradius 48.3597
rwrist 24.4444
rhand -20.1307 -23.3504
rfingers 7.12502
rthumb 6.2136 306.761
lclavicle -1.94809e-014 -2.62396e-014
lhumerus -33.8859 1.99759 57.4265
lradius 73.9716
lwrist 11.7527
lhand -27.1454 718.575
lfingers 7.12502
lthumb -0.560476 -691.446
rfemur -19.0759 3.31659 29.2379
rtibia 41.1435
rfoot -30.0626 -14.8615
rtoes -6.91843
lfemur -43.4298 7.10063 -29.4944
ltibia 50.1921
lfoot -20.5916 11.0684
ltoes -40.2284
1797
root 9.22435 20.5316 -10.8423 369.816 -6.11619 359.414
lowerback 1.46789 1.0194 0.990166
upperback 1.90746 1.33644 3.11436
thorax 1.08111 0.65696 2.63364
lowerneck -14.2265 -3.19783 -2.68126
upperneck 28.9535 -3.22084 -2.21648
head 11.8507 -2.01934 -0.823699
rclavicle 5.96354e-016 -5.56597e-015
rhumerus -29.111 5.90989 -46.3757
rradius 47.6395
rwrist 24.6357
rhand -19.905 -23.6081
rfingers 7.12502
rthumb 6.43152 306.51
lclavicle 5.96354e-016 -5.56597e-015
lhumerus -34.3125 2.47015 57.186
lradius 73.4024
lwrist 12.0535
lhand -26.911 718.768
lfingers 7.12502
lthumb -0.334095 -691.252
rfemur -19.1354 3.09073 29.3789
rtibia 41.1413
rfoot -30.0177 -14.7067
rtoes -6.90851
lfemur -43.8826 6.90792 -29.2282
ltibia 51.0302
lfoot -20.977 10.1175
ltoes -38.6742
1798
root 9.22432 20.5294 -10.8428 369.831 -6.00538 359.255
lowerback 1.50849 1.06497 1.14666
upperback 1.76736 1.40374 3.1798
thorax 0.914167 0.692929 2.60978
lowerneck -14.1682 -3.20928 -2.56754
upperneck 29.1485 -3.26945 -2.21663
head 11.9123 -2.02942 -0.852509
rclavicle -3.57812e-015 -2.38542e-015
rhumerus -29.8116 5.43549 -46.485
rradius 47.0272
rwrist 24.8754
rhand -19.7713 -23.8844
rfingers 7.12502
rthumb 6.56056 306.237
lclavicle -3.57812e-015 -2.38542e-015
lhumerus -34.7256 2.86654 56.6772
lradius 72.7899
lwrist 12.54
lhand -26.9522 718.952
lfingers 7.12502
lthumb -0.373931 -691.068
rfemur -19.0991 3.00702 29.5501
rtibia 41.0493
rfoot -29.9299 -14.7294
rtoes -6.98412
lfemur -44.365 6.72658 -28.9621
ltibia 51.8631
lfoot -21.2927 9.37025
ltoes -37.538
1799
root 9.22357 20.5272 -10.8359 369.782 -5.87829 359.172
lowerback 1.52379 1.11582 1.23584
upperback 1.66088 1.47628 3.21915
thorax 0.794915 0.730528 2.59767
lowerneck -14.1665 -3.2113 -2.51715
upperneck 29.407 -3.3195 -2.10255
head 12.015 -2.03242 -0.830658
rclavicle 1.98785e-015 2.06736e-014
rhumerus -30.4167 5.00369 -46.5286
rradius 46.2723
rwrist 25.2336
rhand -19.6679 -23.7093
rfingers 7.12502
rthumb 6.66038 306.415
lclavicle 1.98785e-015 2.06736e-014
lhumerus -34.997 3.23028 55.9724
lradius 72.1043
lwrist 13.0758
lhand -27.3682 719.034
lfingers 7.12502
lthumb -0.77573 -690.988
rfemur -18.911 2.98448 29.6617
rtibia 40.8904
rfoot -29.9194 -14.864
rtoes -7.14953
lfemur -44.7439 6.50388 -28.7666
ltibia 52.5612
lfoot -21.4112 8.95377
ltoes -36.9721
1800
root 9.22337 20.5284 -10.82 369.59 -5.79144 359.168
lowerback 1.55582 1.17588 1.22117
upperback 1.65584 1.55732 3.26207
thorax 0.767342 0.770787 2.6486
lowerneck -14.3094 -3.23774 -2.52922
upperneck 29.7401 -3.36704 -2.03775
head 12.179 -2.04734 -0.82077
rclavicle -6.75868e-015 7.95139e-016
rhumerus -30.858 4.54883 -46.4564
rradius 45.365
rwrist 25.8732
rhand -19.4926 -23.0814
rfingers 7.12502
rthumb 6.82964 307.049
lclavicle -6.75868e-015 7.95139e-016
lhumerus -35.0714 3.66762 55.2404
lradius 71.3346
lwrist 13.5246
lhand -27.8385 719.017
lfingers 7.12502
lthumb -1.22992 -691.007
rfemur -18.4968 3.02298 29.697
rtibia 40.6725
rfoot -30.0183 -15.1024
rtoes -7.42478
lfemur -44.8776 6.19612 -28.5925
ltibia 53.024
lfoot -21.4625 8.73928
ltoes -36.91
1801
root 9.22351 20.5354 -10.7974 369.358 -5.79117 359.248
lowerback 1.65044 1.2336 1.12052
upperback 1.63811 1.63707 3.27605
thorax 0.689947 0.809942 2.71614
lowerneck -14.4799 -3.25919 -2.66954
upperneck 30.0811 -3.38569 -1.92574
head 12.358 -2.05772 -0.767768
rclavicle -2.20651e-014 -2.8625e-014
rhumerus -31.1613 4.13689 -46.3761
rradius 44.3339
rwrist 26.6982
rhand -19.5816 -23.1292
rfingers 7.12502
rthumb 6.74372 306.998
lclavicle -2.20651e-014 -2.8625e-014
lhumerus -35.1789 4.17647 54.403
lradius 70.5966
lwrist 14.1225
lhand -28.3243 719.128
lfingers 7.12502
lthumb -1.6991 -690.899
rfemur -17.9846 3.20606 29.6406
rtibia 40.3997
rfoot -30.1242 -15.4327
rtoes -7.5738
lfemur -44.8842 5.74678 -28.4467
ltibia 53.1819
lfoot -21.5601 8.70326
ltoes -37.1003
1802
root 9.22278 20.5477 -10.771 369.275 -5.86296 359.388
lowerback 1.66427 1.27669 0.966034
upperback 1.5649 1.69633 3.2313
thorax 0.601558 0.839081 2.75444
lowerneck -14.6363 -3.22493 -2.82976
upperneck 30.3439 -3.34792 -1.72281
head 12.5057 -2.03358 -0.666271
rclavicle -5.96354e-015 1.11319e-014
rhumerus -31.2168 3.68985 -46.3566
rradius 43.1054
rwrist 27.4011
rhand -19.8487 -23.1573
rfingers 7.12502
rthumb 6.48591 306.962
lclavicle -5.96354e-015 1.11319e-014
lhumerus -35.2868 4.80158 53.3725
lradius 69.9006
lwrist 15.0018
lhand -28.6759 719.597
lfingers 7.12502
lthumb -2.03872 -690.433
rfemur -17.5911 3.57123 29.5205
rtibia 40.0595
rfoot -30.157 -15.8237
rtoes -7.40263
lfemur -44.9964 5.23713 -28.3385
ltibia 53.0224
lfoot -21.8388 8.58045
ltoes -37.0669
1803
root 9.21985 20.5589 -10.7393 369.315 -5.97207 359.478
lowerback 1.54272 1.33424 0.824519
upperback 1.47321 1.77175 3.16974
thorax 0.570084 0.876563 2.77104
lowerneck -14.7614 -3.15619 -2.88657
upperneck 30.5691 -3.27785 -1.56169
head 12.6284 -1.98876 -0.591298
rclavicle -2.48481e-014 -3.57812e-014
rhumerus -31.2688 3.05234 -46.3014
rradius 41.9943
rwrist 28.0831
rhand -19.9541 -22.4882
rfingers 7.12502
rthumb 6.3841 307.628
lclavicle -2.48481e-014 -3.57812e-014
lhumerus -35.2915 5.39969 52.3121
lradius 69.2765
lwrist 16.2167
lhand -29.1085 720.51
lfingers 7.12502
lthumb -2.45647 -689.524
rfemur -17.2699 4.04056 29.4775
rtibia 39.6574
rfoot -30.1718 -16.2824
rtoes -7.38191
lfemur -45.2102 4.83261 -28.1942
ltibia 52.5543
lfoot -21.9784 8.48162
ltoes -37.3058
1804
root 9.21345 20.5685 -10.6993 369.333 -6.0717 359.56
lowerback 1.37591 1.40827 0.661316
upperback 1.3668 1.86874 3.07381
thorax 0.548192 0.924994 2.76528
lowerneck -14.771 -3.11898 -2.86304
upperneck 30.7684 -3.27475 -1.42236
head 12.7142 -1.96705 -0.545142
rclavicle -4.17448e-015 -3.97569e-015
rhumerus -31.5338 2.31063 -46.2095
rradius 41.1988
rwrist 28.784
rhand -19.7533 -22.5567
rfingers 7.12502
rthumb 6.578 307.565
lclavicle -4.17448e-015 -3.97569e-015
lhumerus -35.2446 5.8745 51.2531
lradius 68.711
lwrist 17.6445
lhand -29.7942 721.113
lfingers 7.12502
lthumb -3.11868 -688.93
rfemur -16.8411 4.57657 29.4698
rtibia 39.2087
rfoot -30.2863 -16.7702
rtoes -7.48056
lfemur -45.3459 4.44823 -28.0332
ltibia 51.841
lfoot -21.8395 8.42982
ltoes -37.4477
1805
root 9.20523 20.5784 -10.6512 369.313 -6.16673 359.685
lowerback 1.18309 1.46154 0.464465
upperback 1.32307 1.93606 2.93003
thorax 0.606812 0.957903 2.73162
lowerneck -14.9439 -3.09246 -2.86239
upperneck 30.9514 -3.30114 -1.20245
head 12.8307 -1.94993 -0.47131
rclavicle 4.75095e-014 1.27222e-014
rhumerus -31.7138 1.7053 -46.1433
rradius 40.5721
rwrist 29.1523
rhand -19.213 -23.0532
rfingers 7.12502
rthumb 7.0995 307.086
lclavicle 4.75095e-014 1.27222e-014
lhumerus -35.1179 6.49562 50.1242
lradius 68.1118
lwrist 19.0169
lhand -30.4389 721.149
lfingers 7.12502
lthumb -3.74131 -688.904
rfemur -16.3237 5.09816 29.4118
rtibia 38.7066
rfoot -30.397 -17.2768
rtoes -7.48476
lfemur -45.3966 4.07595 -27.9293
ltibia 50.9624
lfoot -21.8023 8.55211
ltoes -37.8212
1806
root 9.19909 20.586 -10.5996 369.323 -6.26863 359.728
lowerback 1.02705 1.50235 0.401333
upperback 1.28582 1.98869 2.78603
thorax 0.656561 0.984387 2.62221
lowerneck -15.2193 -3.05025 -3.01599
upperneck 31.1666 -3.29824 -0.853343
head 12.9897 -1.92039 -0.318464
rclavicle -5.96354e-016 -3.97569e-015
rhumerus -31.8693 1.38857 -46.0748
rradius 40.1772
rwrist 29.1095
rhand -18.7698 -23.4093
rfingers 7.12502
rthumb 7.52732 306.745
lclavicle -5.96354e-016 -3.97569e-015
lhumerus -34.9842 7.20434 49.0385
lradius 67.5373
lwrist 20.4535
lhand -31.3215 721.375
lfingers 7.12502
lthumb -4.59355 -688.695
rfemur -15.806 5.49655 29.4054
rtibia 38.1388
rfoot -30.3693 -17.7578
rtoes -7.72657
lfemur -45.4662 3.78754 -27.7803
ltibia 50.0235
lfoot -21.9866 9.10528
ltoes -39.2353
